<svg width="42" height="42" fill="none" xmlns="http://www.w3.org/2000/svg"><g clip-path="url(#icon__a)"><mask id="icon__b" style="mask-type:luminance" maskUnits="userSpaceOnUse" x="0" y="2" width="42" height="38"><path d="M0 2h42v38H0V2Z" fill="#fff"/></mask><g mask="url(#icon__b)"><path d="M5.747 30.726c1.54 1.074 4.037 1.074 5.577 0s1.54-2.816 0-3.89c-1.54-1.075-4.037-1.075-5.577 0-1.54 1.074-1.54 2.816 0 3.89Zm15.985-14.589c2.31 1.611 6.056 1.611 8.366 0 2.31-1.611 2.31-4.224 0-5.835-2.31-1.612-6.055-1.612-8.366 0-2.31 1.611-2.31 4.224 0 5.835Zm-8.486 7.294c1.926 1.343 5.047 1.343 6.972 0 1.925-1.343 1.925-3.52 0-4.863-1.925-1.342-5.046-1.342-6.972 0-1.925 1.343-1.925 3.52 0 4.863Zm-12.38-.972c1.155.806 3.028.806 4.183 0 1.156-.806 1.156-2.112 0-2.918-1.155-.806-3.028-.806-4.183 0-1.155.806-1.155 2.112 0 2.918ZM13.246 7.87c1.926 1.343 5.047 1.343 6.972 0 1.925-1.343 1.925-3.52 0-4.863-1.925-1.343-5.046-1.343-6.972 0-1.925 1.343-1.925 3.52 0 4.863Zm-7.499 7.295c1.54 1.074 4.037 1.074 5.577 0 1.54-1.075 1.54-2.816 0-3.89-1.54-1.075-4.037-1.075-5.577 0-1.54 1.073-1.54 2.815 0 3.89Zm7.499 23.828c1.926 1.343 5.047 1.343 6.972 0 1.925-1.343 1.925-3.52 0-4.863-1.925-1.343-5.046-1.343-6.972 0-1.925 1.343-1.925 3.52 0 4.863Zm18.655-15.075c2.31 1.611 6.056 1.611 8.366 0 2.31-1.611 2.31-4.224 0-5.836-2.31-1.611-6.056-1.611-8.366 0-2.31 1.612-2.31 4.224 0 5.836Zm-10.169 7.78c2.31 1.612 6.056 1.612 8.366 0 2.31-1.611 2.31-4.224 0-5.835-2.31-1.612-6.055-1.612-8.366 0-2.31 1.611-2.31 4.224 0 5.835Z" fill="#000"/></g></g><defs><clipPath id="icon__a"><path fill="#fff" transform="translate(0 2)" d="M0 0h42v38H0z"/></clipPath></defs></svg>